<?xml version="1.0" encoding="UTF-8"?>
<svg id="Layer_2" data-name="Layer 2" xmlns="http://www.w3.org/2000/svg" viewBox="0 0 79.15 123.03">
  <defs>
    <style>
      .cls-1 {
        fill: #000;
      }

      .cls-1, .cls-2 {
        stroke-width: 0px;
      }

      .cls-2 {
        fill: #fff;
      }
    </style>
  </defs>
  <g id="Layer_1-2" data-name="Layer 1">
    <polygon class="cls-1" points="79.04 86.55 79.05 86.45 78.94 86.45 78.95 86.35 78.84 86.35 78.85 86.25 78.74 86.25 78.75 86.15 78.64 86.15 78.65 86.05 78.54 86.05 78.55 85.95 78.44 85.95 78.45 85.85 78.34 85.85 78.35 85.75 78.24 85.75 78.25 85.65 78.14 85.65 78.15 85.55 78.04 85.55 78.05 85.45 77.94 85.45 77.95 85.35 77.84 85.35 77.85 85.25 77.74 85.25 77.75 85.15 77.64 85.15 77.65 85.05 77.54 85.05 77.55 84.95 77.44 84.95 77.45 84.85 77.34 84.85 77.35 84.75 77.24 84.75 77.25 84.65 77.14 84.65 77.15 84.55 77.04 84.55 77.05 84.45 76.94 84.45 76.95 84.35 76.84 84.35 76.85 84.25 76.74 84.25 76.75 84.15 76.64 84.15 76.65 84.05 76.54 84.05 76.55 83.95 76.44 83.95 76.45 83.85 76.34 83.85 76.35 83.75 76.24 83.75 76.25 83.65 76.14 83.65 76.15 83.55 76.04 83.55 76.05 83.45 75.94 83.45 75.95 83.35 75.84 83.35 75.85 83.25 75.74 83.25 75.75 83.15 75.64 83.15 75.65 83.05 75.54 83.05 75.55 82.95 75.44 82.95 75.45 82.85 75.34 82.85 75.35 82.75 75.24 82.75 75.25 82.65 75.14 82.65 75.15 82.55 75.04 82.55 75.05 82.45 74.94 82.45 74.95 82.35 74.84 82.35 74.85 82.25 74.74 82.25 74.75 82.15 74.64 82.15 74.65 82.05 74.54 82.05 74.55 81.95 74.44 81.95 74.45 81.85 74.34 81.85 74.35 81.75 74.24 81.75 74.25 81.65 74.14 81.65 74.15 81.55 74.04 81.55 74.05 81.45 73.94 81.45 73.95 81.35 73.84 81.35 73.85 81.25 73.8 81.25 78.69 46.55 78.57 46.55 78.59 46.45 78.47 46.45 78.49 46.35 78.37 46.35 78.39 46.25 78.27 46.25 78.29 46.15 78.17 46.15 78.19 46.05 78.07 46.05 78.09 45.95 77.97 45.95 77.99 45.85 77.87 45.85 77.89 45.75 77.77 45.75 77.79 45.65 77.67 45.65 77.69 45.55 77.57 45.55 77.59 45.45 77.47 45.45 77.49 45.35 77.37 45.35 77.39 45.25 77.27 45.25 77.29 45.15 77.17 45.15 77.19 45.05 77.07 45.05 77.09 44.95 76.97 44.95 76.99 44.85 76.87 44.85 76.89 44.75 76.77 44.75 76.79 44.65 76.67 44.65 76.69 44.55 76.57 44.55 76.59 44.45 76.47 44.45 76.49 44.35 76.37 44.35 76.39 44.25 76.27 44.25 76.29 44.15 76.17 44.15 76.19 44.05 76.07 44.05 76.09 43.95 75.97 43.95 75.99 43.85 75.87 43.85 75.89 43.75 75.77 43.75 75.79 43.65 75.67 43.65 75.69 43.55 75.57 43.55 75.59 43.45 75.47 43.45 75.49 43.35 75.37 43.35 75.39 43.25 75.27 43.25 75.29 43.15 75.17 43.15 75.19 43.05 75.07 43.05 75.09 42.95 74.97 42.95 74.99 42.85 74.87 42.85 74.89 42.75 74.77 42.75 74.79 42.65 74.67 42.65 74.69 42.55 74.57 42.55 74.59 42.45 74.47 42.45 74.49 42.35 74.37 42.35 74.39 42.25 74.27 42.25 74.29 42.15 74.17 42.15 74.19 42.05 74.07 42.05 74.09 41.95 73.97 41.95 73.99 41.85 73.87 41.85 73.89 41.75 73.77 41.75 73.79 41.65 73.67 41.65 73.69 41.55 73.57 41.55 73.59 41.45 73.47 41.45 73.49 41.35 73.37 41.35 73.39 41.25 73.33 41.25 73.9 37.13 73.79 37.13 73.8 37.03 73.69 37.03 73.7 36.93 73.59 36.93 73.6 36.83 73.49 36.83 73.5 36.73 73.39 36.73 73.4 36.63 73.29 36.63 73.3 36.53 73.19 36.53 73.2 36.43 73.09 36.43 73.1 36.33 72.99 36.33 73 36.23 72.89 36.23 72.9 36.13 72.79 36.13 72.8 36.03 72.69 36.03 72.7 35.93 72.59 35.93 72.6 35.83 72.49 35.83 72.5 35.73 72.39 35.73 72.4 35.63 72.29 35.63 72.3 35.53 72.19 35.53 72.2 35.43 72.09 35.43 72.1 35.33 71.99 35.33 72 35.23 71.89 35.23 71.9 35.13 71.79 35.13 71.8 35.03 71.69 35.03 71.7 34.93 71.59 34.93 71.6 34.83 71.49 34.83 71.5 34.73 71.39 34.73 71.4 34.63 71.29 34.63 71.3 34.53 71.19 34.53 71.2 34.43 71.09 34.43 71.1 34.33 70.99 34.33 71 34.23 70.89 34.23 70.9 34.13 70.79 34.13 70.8 34.03 70.69 34.03 70.7 33.93 70.59 33.93 70.6 33.83 70.49 33.83 70.5 33.73 70.39 33.73 70.4 33.63 70.29 33.63 70.3 33.53 70.19 33.53 70.2 33.43 70.09 33.43 70.1 33.33 69.99 33.33 70 33.23 69.89 33.23 69.9 33.13 69.79 33.13 69.8 33.03 69.69 33.03 69.7 32.93 69.59 32.93 69.6 32.83 69.49 32.83 69.5 32.73 69.39 32.73 69.4 32.63 69.29 32.63 69.3 32.53 69.19 32.53 69.2 32.43 69.09 32.43 69.1 32.33 68.99 32.33 69 32.23 68.89 32.23 68.9 32.13 68.79 32.13 68.8 32.03 68.69 32.03 68.7 31.93 68.59 31.93 68.6 31.83 68.49 31.83 68.5 31.73 68.39 31.73 68.4 31.63 68.29 31.63 68.3 31.53 68.19 31.53 68.2 31.43 68.09 31.43 68.1 31.33 67.99 31.33 68 31.23 67.89 31.23 67.9 31.13 67.79 31.13 67.8 31.03 67.69 31.03 67.7 30.93 67.59 30.93 67.6 30.83 66.01 30.83 77.45 12.46 78.22 6.55 78.11 6.55 78.12 6.45 78.01 6.45 78.02 6.35 77.91 6.35 77.92 6.25 77.81 6.25 77.82 6.15 77.71 6.15 77.72 6.05 77.61 6.05 77.62 5.95 77.51 5.95 77.52 5.85 77.41 5.85 77.42 5.75 77.31 5.75 77.32 5.65 77.21 5.65 77.22 5.55 77.11 5.55 77.12 5.45 77.01 5.45 77.02 5.35 76.91 5.35 76.92 5.25 76.81 5.25 76.82 5.15 76.71 5.15 76.72 5.05 76.61 5.05 76.62 4.95 76.51 4.95 76.52 4.85 76.41 4.85 76.42 4.75 76.31 4.75 76.32 4.65 76.21 4.65 76.22 4.55 76.11 4.55 76.12 4.45 76.01 4.45 76.02 4.35 75.91 4.35 75.92 4.25 75.81 4.25 75.82 4.15 75.71 4.15 75.72 4.05 75.61 4.05 75.62 3.95 75.51 3.95 75.52 3.85 75.41 3.85 75.42 3.75 75.31 3.75 75.32 3.65 75.21 3.65 75.22 3.55 75.11 3.55 75.12 3.45 75.01 3.45 75.02 3.35 74.91 3.35 74.92 3.25 74.81 3.25 74.82 3.15 74.71 3.15 74.72 3.05 74.61 3.05 74.62 2.95 74.51 2.95 74.52 2.85 74.41 2.85 74.42 2.75 74.31 2.75 74.32 2.65 74.21 2.65 74.22 2.55 74.11 2.55 74.12 2.45 74.01 2.45 74.02 2.35 73.91 2.35 73.92 2.25 73.81 2.25 73.82 2.15 73.71 2.15 73.72 2.05 73.61 2.05 73.62 1.95 73.51 1.95 73.52 1.85 73.41 1.85 73.42 1.75 73.31 1.75 73.32 1.65 73.21 1.65 73.22 1.55 73.11 1.55 73.12 1.45 73.01 1.45 73.02 1.35 72.91 1.35 72.92 1.25 72.81 1.25 72.82 1.15 72.71 1.15 72.72 1.05 72.61 1.05 72.62 .95 72.51 .95 72.52 .85 72.41 .85 72.42 .75 72.31 .75 72.32 .65 72.21 .65 72.22 .55 72.11 .55 72.12 .45 72.01 .45 72.02 .35 71.91 .35 71.92 .25 53.63 .25 53.2 3.35 53.11 3.35 53.13 3.25 53.01 3.25 53.03 3.15 52.91 3.15 52.93 3.05 52.81 3.05 52.83 2.95 52.71 2.95 52.73 2.85 52.61 2.85 52.63 2.75 52.51 2.75 52.53 2.65 52.41 2.65 52.43 2.55 52.31 2.55 52.33 2.45 52.21 2.45 52.23 2.35 52.11 2.35 52.13 2.25 52.01 2.25 52.03 2.15 51.91 2.15 51.93 2.05 51.81 2.05 51.83 1.95 51.71 1.95 51.73 1.85 51.61 1.85 51.63 1.75 51.51 1.75 51.53 1.65 51.41 1.65 51.43 1.55 51.31 1.55 51.33 1.45 51.21 1.45 51.23 1.35 51.11 1.35 51.13 1.25 51.01 1.25 51.03 1.15 50.91 1.15 50.93 1.05 50.81 1.05 50.83 .95 50.71 .95 50.73 .85 50.61 .85 50.63 .75 50.51 .75 50.53 .65 50.41 .65 50.43 .55 50.31 .55 50.33 .45 50.21 .45 50.23 .35 50.11 .35 50.13 .25 44.03 .25 42.82 8.69 42.36 6.55 42.28 6.55 42.26 6.45 42.18 6.45 42.16 6.35 42.08 6.35 42.06 6.25 41.98 6.25 41.96 6.15 41.88 6.15 41.86 6.05 41.78 6.05 41.76 5.95 41.68 5.95 41.66 5.85 41.58 5.85 41.56 5.75 41.48 5.75 41.46 5.65 41.38 5.65 41.36 5.55 41.28 5.55 41.26 5.45 41.18 5.45 41.16 5.35 41.08 5.35 41.06 5.25 40.98 5.25 40.96 5.15 40.88 5.15 40.86 5.05 40.78 5.05 40.76 4.95 40.68 4.95 40.66 4.85 40.58 4.85 40.56 4.75 40.48 4.75 40.46 4.65 40.38 4.65 40.36 4.55 40.28 4.55 40.26 4.45 40.18 4.45 40.16 4.35 40.08 4.35 40.06 4.25 39.98 4.25 39.96 4.15 39.88 4.15 39.86 4.05 39.78 4.05 39.76 3.95 39.68 3.95 39.66 3.85 39.58 3.85 39.56 3.75 39.48 3.75 39.46 3.65 39.38 3.65 39.36 3.55 39.28 3.55 39.26 3.45 39.18 3.45 39.16 3.35 39.08 3.35 39.06 3.25 38.98 3.25 38.96 3.15 38.88 3.15 38.86 3.05 38.78 3.05 38.76 2.95 38.68 2.95 38.66 2.85 38.58 2.85 38.56 2.75 38.48 2.75 38.46 2.65 38.38 2.65 38.36 2.55 38.28 2.55 38.26 2.45 38.18 2.45 38.16 2.35 38.08 2.35 38.06 2.25 37.98 2.25 37.96 2.15 37.88 2.15 37.86 2.05 37.78 2.05 37.76 1.95 37.68 1.95 37.66 1.85 37.58 1.85 37.56 1.75 37.48 1.75 37.46 1.65 37.38 1.65 37.36 1.55 37.28 1.55 37.26 1.45 37.18 1.45 37.16 1.35 37.08 1.35 37.06 1.25 36.98 1.25 36.96 1.15 36.88 1.15 36.86 1.05 36.78 1.05 36.76 .95 36.68 .95 36.66 .85 36.58 .85 36.56 .75 36.48 .75 36.46 .65 36.38 .65 36.36 .55 36.28 .55 36.26 .45 36.18 .45 36.16 .35 36.08 .35 36.06 .25 29.53 .25 28.69 6.27 28.67 6.25 28.66 6.25 28.57 6.15 28.56 6.15 28.47 6.05 28.46 6.05 28.37 5.95 28.36 5.95 28.27 5.85 28.26 5.85 28.17 5.75 28.16 5.75 28.07 5.65 28.06 5.65 27.97 5.55 27.96 5.55 27.87 5.45 27.86 5.45 27.77 5.35 27.76 5.35 27.67 5.25 27.66 5.25 27.57 5.15 27.56 5.15 27.47 5.05 27.46 5.05 27.37 4.95 27.36 4.95 27.27 4.85 27.26 4.85 27.17 4.75 27.16 4.75 27.07 4.65 27.06 4.65 26.97 4.55 26.96 4.55 26.87 4.45 26.86 4.45 26.77 4.35 26.76 4.35 26.67 4.25 26.66 4.25 26.57 4.15 26.56 4.15 26.47 4.05 26.46 4.05 26.37 3.95 26.36 3.95 26.27 3.85 26.26 3.85 26.17 3.75 26.16 3.75 26.07 3.65 26.06 3.65 25.97 3.55 25.96 3.55 25.87 3.45 25.86 3.45 25.77 3.35 25.76 3.35 25.67 3.25 25.66 3.25 25.57 3.15 25.56 3.15 25.47 3.05 25.46 3.05 25.37 2.95 25.36 2.95 25.27 2.85 25.26 2.85 25.17 2.75 25.16 2.75 25.07 2.65 25.06 2.65 24.97 2.55 24.96 2.55 24.87 2.45 24.86 2.45 24.77 2.35 24.76 2.35 24.67 2.25 24.66 2.25 24.57 2.15 24.56 2.15 24.47 2.05 24.46 2.05 24.37 1.95 24.36 1.95 24.27 1.85 24.26 1.85 24.17 1.75 24.16 1.75 24.07 1.65 24.06 1.65 23.97 1.55 23.96 1.55 23.87 1.45 23.86 1.45 23.77 1.35 23.76 1.35 23.67 1.25 23.66 1.25 23.57 1.15 23.56 1.15 23.47 1.05 23.46 1.05 23.37 .95 23.36 .95 23.27 .85 23.26 .85 23.17 .75 23.16 .75 23.07 .65 23.06 .65 22.97 .55 22.96 .55 22.87 .45 22.86 .45 22.77 .35 22.76 .35 22.67 .25 6.98 .25 1.84 36.73 1.95 36.73 1.94 36.83 2.05 36.83 2.04 36.93 2.15 36.93 2.14 37.03 2.25 37.03 2.24 37.13 2.35 37.13 2.34 37.23 2.45 37.23 2.44 37.33 2.55 37.33 2.54 37.43 2.65 37.43 2.64 37.53 2.75 37.53 2.74 37.63 2.85 37.63 2.84 37.73 2.95 37.73 2.94 37.83 3.05 37.83 3.04 37.93 3.15 37.93 3.14 38.03 3.25 38.03 3.24 38.13 3.35 38.13 3.34 38.23 3.45 38.23 3.44 38.33 3.55 38.33 3.54 38.43 3.65 38.43 3.64 38.53 3.75 38.53 3.74 38.63 3.85 38.63 3.84 38.73 3.95 38.73 3.94 38.83 4.05 38.83 4.04 38.93 4.15 38.93 4.14 39.03 4.25 39.03 4.24 39.13 4.35 39.13 4.34 39.23 4.45 39.23 4.44 39.33 4.55 39.33 4.54 39.43 4.65 39.43 4.64 39.53 4.75 39.53 4.74 39.63 4.85 39.63 4.84 39.73 4.95 39.73 4.94 39.83 5.05 39.83 5.04 39.93 5.15 39.93 5.14 40.03 5.25 40.03 5.24 40.13 5.35 40.13 5.34 40.23 5.45 40.23 5.45 40.25 5.42 40.25 .29 76.73 .4 76.73 .39 76.83 .5 76.83 .49 76.93 .6 76.93 .59 77.03 .7 77.03 .69 77.13 .8 77.13 .79 77.23 .9 77.23 .89 77.33 1 77.33 .99 77.43 1.1 77.43 1.09 77.53 1.2 77.53 1.19 77.63 1.3 77.63 1.29 77.73 1.4 77.73 1.39 77.83 1.5 77.83 1.49 77.93 1.6 77.93 1.59 78.03 1.7 78.03 1.69 78.13 1.8 78.13 1.79 78.23 1.9 78.23 1.89 78.33 2 78.33 1.99 78.43 2.1 78.43 2.09 78.53 2.2 78.53 2.19 78.63 2.3 78.63 2.29 78.73 2.4 78.73 2.39 78.83 2.5 78.83 2.49 78.93 2.6 78.93 2.59 79.03 2.7 79.03 2.69 79.13 2.8 79.13 2.79 79.23 2.9 79.23 2.89 79.33 3 79.33 2.99 79.43 3.1 79.43 3.09 79.53 3.2 79.53 3.19 79.63 3.3 79.63 3.29 79.73 3.4 79.73 3.39 79.83 3.5 79.83 3.49 79.93 3.6 79.93 3.59 80.03 3.7 80.03 3.69 80.13 3.8 80.13 3.79 80.23 3.9 80.23 3.89 80.33 4 80.33 3.99 80.43 4.1 80.43 4.09 80.53 4.2 80.53 4.19 80.63 4.3 80.63 4.29 80.73 4.4 80.73 4.39 80.83 4.5 80.83 4.49 80.93 4.6 80.93 4.59 81.03 4.7 81.03 4.69 81.13 4.8 81.13 4.79 81.23 4.9 81.23 4.89 81.33 5 81.33 4.99 81.43 5.08 81.43 5.09 81.49 5.09 81.53 5.1 81.53 9.82 104.01 8 116.73 8.11 116.73 8.1 116.83 8.21 116.83 8.2 116.93 8.31 116.93 8.3 117.03 8.41 117.03 8.4 117.13 8.51 117.13 8.5 117.23 8.61 117.23 8.6 117.33 8.71 117.33 8.7 117.43 8.81 117.43 8.8 117.53 8.91 117.53 8.9 117.63 9.01 117.63 9 117.73 9.11 117.73 9.1 117.83 9.21 117.83 9.2 117.93 9.31 117.93 9.3 118.03 9.41 118.03 9.4 118.13 9.51 118.13 9.5 118.23 9.61 118.23 9.6 118.33 9.71 118.33 9.7 118.43 9.81 118.43 9.8 118.53 9.91 118.53 9.9 118.63 10.01 118.63 10 118.73 10.11 118.73 10.1 118.83 10.21 118.83 10.2 118.93 10.31 118.93 10.3 119.03 10.41 119.03 10.4 119.13 10.51 119.13 10.5 119.23 10.61 119.23 10.6 119.33 10.71 119.33 10.7 119.43 10.81 119.43 10.8 119.53 10.91 119.53 10.9 119.63 11.01 119.63 11 119.73 11.11 119.73 11.1 119.83 11.21 119.83 11.2 119.93 11.31 119.93 11.3 120.03 11.41 120.03 11.4 120.13 11.51 120.13 11.5 120.23 11.61 120.23 11.6 120.33 11.71 120.33 11.7 120.43 11.81 120.43 11.8 120.53 11.91 120.53 11.9 120.63 12.01 120.63 12 120.73 12.11 120.73 12.1 120.83 12.21 120.83 12.2 120.93 12.31 120.93 12.3 121.03 12.41 121.03 12.4 121.13 12.51 121.13 12.5 121.23 12.61 121.23 12.6 121.33 12.71 121.33 12.7 121.43 12.81 121.43 12.8 121.53 12.91 121.53 12.9 121.63 13.01 121.63 13 121.73 13.11 121.73 13.1 121.83 13.21 121.83 13.2 121.93 13.31 121.93 13.3 122.03 13.41 122.03 13.4 122.13 13.51 122.13 13.5 122.23 13.61 122.23 13.6 122.33 13.71 122.33 13.7 122.43 13.81 122.43 13.8 122.53 13.91 122.53 13.9 122.63 14.01 122.63 14 122.73 14.11 122.73 14.1 122.83 14.21 122.83 14.2 122.93 14.31 122.93 14.3 123.03 20.35 123.03 22.17 110.31 27.52 99.47 25.09 116.73 25.2 116.73 25.19 116.83 25.3 116.83 25.29 116.93 25.4 116.93 25.39 117.03 25.5 117.03 25.49 117.13 25.6 117.13 25.59 117.23 25.7 117.23 25.69 117.33 25.8 117.33 25.79 117.43 25.9 117.43 25.89 117.53 26 117.53 25.99 117.63 26.1 117.63 26.09 117.73 26.2 117.73 26.19 117.83 26.3 117.83 26.29 117.93 26.4 117.93 26.39 118.03 26.5 118.03 26.49 118.13 26.6 118.13 26.59 118.23 26.7 118.23 26.69 118.33 26.8 118.33 26.79 118.43 26.9 118.43 26.89 118.53 27 118.53 26.99 118.63 27.1 118.63 27.09 118.73 27.2 118.73 27.19 118.83 27.3 118.83 27.29 118.93 27.4 118.93 27.39 119.03 27.5 119.03 27.49 119.13 27.6 119.13 27.59 119.23 27.7 119.23 27.69 119.33 27.8 119.33 27.79 119.43 27.9 119.43 27.89 119.53 28 119.53 27.99 119.63 28.1 119.63 28.09 119.73 28.2 119.73 28.19 119.83 28.3 119.83 28.29 119.93 28.4 119.93 28.39 120.03 28.5 120.03 28.49 120.13 28.6 120.13 28.59 120.23 28.7 120.23 28.69 120.33 28.8 120.33 28.79 120.43 28.9 120.43 28.89 120.53 29 120.53 28.99 120.63 29.1 120.63 29.09 120.73 29.2 120.73 29.19 120.83 29.3 120.83 29.29 120.93 29.4 120.93 29.39 121.03 29.5 121.03 29.49 121.13 29.6 121.13 29.59 121.23 29.7 121.23 29.69 121.33 29.8 121.33 29.79 121.43 29.9 121.43 29.89 121.53 30 121.53 29.99 121.63 30.1 121.63 30.09 121.73 30.2 121.73 30.19 121.83 30.3 121.83 30.29 121.93 30.4 121.93 30.39 122.03 30.5 122.03 30.49 122.13 30.6 122.13 30.59 122.23 30.7 122.23 30.69 122.33 30.8 122.33 30.79 122.43 30.9 122.43 30.89 122.53 31 122.53 30.99 122.63 31.1 122.63 31.09 122.73 31.2 122.73 31.19 122.83 31.3 122.83 31.29 122.93 31.4 122.93 31.39 123.03 37.48 123.03 39.5 108.82 48.23 108.82 47.12 116.73 47.23 116.73 47.22 116.83 47.33 116.83 47.32 116.93 47.43 116.93 47.42 117.03 47.53 117.03 47.52 117.13 47.63 117.13 47.62 117.23 47.73 117.23 47.72 117.33 47.83 117.33 47.82 117.43 47.93 117.43 47.92 117.53 48.03 117.53 48.02 117.63 48.13 117.63 48.12 117.73 48.23 117.73 48.22 117.83 48.33 117.83 48.32 117.93 48.43 117.93 48.42 118.03 48.53 118.03 48.52 118.13 48.63 118.13 48.62 118.23 48.73 118.23 48.72 118.33 48.83 118.33 48.82 118.43 48.93 118.43 48.92 118.53 49.03 118.53 49.02 118.63 49.13 118.63 49.12 118.73 49.23 118.73 49.22 118.83 49.33 118.83 49.32 118.93 49.43 118.93 49.42 119.03 49.53 119.03 49.52 119.13 49.63 119.13 49.62 119.23 49.73 119.23 49.72 119.33 49.83 119.33 49.82 119.43 49.93 119.43 49.92 119.53 50.03 119.53 50.02 119.63 50.13 119.63 50.12 119.73 50.23 119.73 50.22 119.83 50.33 119.83 50.32 119.93 50.43 119.93 50.42 120.03 50.53 120.03 50.52 120.13 50.63 120.13 50.62 120.23 50.73 120.23 50.72 120.33 50.83 120.33 50.82 120.43 50.93 120.43 50.92 120.53 51.03 120.53 51.02 120.63 51.13 120.63 51.12 120.73 51.23 120.73 51.22 120.83 51.33 120.83 51.32 120.93 51.43 120.93 51.42 121.03 51.53 121.03 51.52 121.13 51.63 121.13 51.62 121.23 51.73 121.23 51.72 121.33 51.83 121.33 51.82 121.43 51.93 121.43 51.92 121.53 52.03 121.53 52.02 121.63 52.13 121.63 52.12 121.73 52.23 121.73 52.22 121.83 52.33 121.83 52.32 121.93 52.43 121.93 52.42 122.03 52.53 122.03 52.52 122.13 52.63 122.13 52.62 122.23 52.73 122.23 52.72 122.33 52.83 122.33 52.82 122.43 52.93 122.43 52.92 122.53 53.03 122.53 53.02 122.63 53.13 122.63 53.12 122.73 53.23 122.73 53.22 122.83 53.33 122.83 53.32 122.93 53.43 122.93 53.42 123.03 59.52 123.03 60.72 114.55 61.19 116.73 61.26 116.73 61.29 116.83 61.36 116.83 61.39 116.93 61.46 116.93 61.49 117.03 61.56 117.03 61.59 117.13 61.66 117.13 61.69 117.23 61.76 117.23 61.79 117.33 61.86 117.33 61.89 117.43 61.96 117.43 61.99 117.53 62.06 117.53 62.09 117.63 62.16 117.63 62.19 117.73 62.26 117.73 62.29 117.83 62.36 117.83 62.39 117.93 62.46 117.93 62.49 118.03 62.56 118.03 62.59 118.13 62.66 118.13 62.69 118.23 62.76 118.23 62.79 118.33 62.86 118.33 62.89 118.43 62.96 118.43 62.99 118.53 63.06 118.53 63.09 118.63 63.16 118.63 63.19 118.73 63.26 118.73 63.29 118.83 63.36 118.83 63.39 118.93 63.46 118.93 63.49 119.03 63.56 119.03 63.59 119.13 63.66 119.13 63.69 119.23 63.76 119.23 63.79 119.33 63.86 119.33 63.89 119.43 63.96 119.43 63.99 119.53 64.06 119.53 64.09 119.63 64.16 119.63 64.19 119.73 64.26 119.73 64.29 119.83 64.36 119.83 64.39 119.93 64.46 119.93 64.49 120.03 64.56 120.03 64.59 120.13 64.66 120.13 64.69 120.23 64.76 120.23 64.79 120.33 64.86 120.33 64.89 120.43 64.96 120.43 64.99 120.53 65.06 120.53 65.09 120.63 65.16 120.63 65.19 120.73 65.26 120.73 65.29 120.83 65.36 120.83 65.39 120.93 65.46 120.93 65.49 121.03 65.56 121.03 65.59 121.13 65.66 121.13 65.69 121.23 65.76 121.23 65.79 121.33 65.86 121.33 65.89 121.43 65.96 121.43 65.99 121.53 66.06 121.53 66.09 121.63 66.16 121.63 66.19 121.73 66.26 121.73 66.29 121.83 66.36 121.83 66.39 121.93 66.46 121.93 66.49 122.03 66.56 122.03 66.59 122.13 66.66 122.13 66.69 122.23 66.76 122.23 66.79 122.33 66.86 122.33 66.89 122.43 66.96 122.43 66.99 122.53 67.06 122.53 67.09 122.63 67.16 122.63 67.19 122.73 67.26 122.73 67.29 122.83 67.36 122.83 67.39 122.93 67.46 122.93 67.49 123.03 74.01 123.03 79.15 86.55 79.04 86.55"/>
    <g>
      <path class="cls-2" d="M61.39,116.48l-5.05-23.55-3.33,23.55h-5.59l5.07-35.98h6.11l5,23.55,3.39-23.55h5.59l-5.07,35.98h-6.11ZM25.38,116.48l5.07-35.98h15.12l2.4,2.8-2.18,16.12-3.22,2.85h-9.58l-2.02,14.21h-5.59ZM33.73,96.87h5.85l.96-.84,1.38-9.23-.78-.84h-5.9l-1.51,10.92ZM8.29,116.48l1.78-12.44-4.93-23.55h6.01l2.65,15.91,7.23-15.91h6.16l-11.54,23.4-1.82,12.58h-5.54ZM60.92,76.48l-5.05-23.55-3.33,23.55h-5.59l5.07-35.98h6.11l5,23.55,3.39-23.55h5.59l-5.07,35.98h-6.11ZM29.66,76.48l-1.66-35.98h5.49l.75,28.38,8.89-28.38h5.66l-11.79,35.98h-7.36ZM15.16,76.48l-4.03-13.72-3.88,5.72-1.18,8H.58l5.07-35.98h5.49l-2.52,17.48,11.49-17.48h6.21l-10.94,16.03,5.84,19.96h-6.06ZM48.78,36.48l.72-5.57,15.57-25.01h-11.97l.75-5.41h17.79l-.73,5.57-15.57,25.01h11.97l-.75,5.4h-17.79ZM38.67,36.48l-5.05-23.55-3.34,23.55h-5.59L29.75.5h6.11l5,23.55L44.25.5h5.59l-5.07,35.98h-6.11ZM14.84,36.48l-.96-14.21h-4.15l-2.02,14.21H2.13L7.19.5h15.36l2.4,2.8-2.18,16.12-3.43,3,.9,14.07h-5.4ZM10.48,16.87h6.19l.9-.85,1.37-9.22-.73-.85h-6.24l-1.51,10.92Z"/>
      <path class="cls-1" d="M71.35.75l-.68,5.23-15.3,24.58-.48.76h12.14l-.68,4.9h-17.28l.68-5.23,15.3-24.58.48-.76h-12.14l.68-4.91h17.29M49.55.75l-5,35.48h-5.69l-4.72-21.98-.59-2.75-.39,2.78-3.11,21.94h-5.09L29.97.75h5.69l4.67,21.97.58,2.75.4-2.78L44.47.75h5.09M22.44.75l2.25,2.63-2.15,15.91-3.27,2.85-.19.16.02.25.88,13.68h-4.9l-.93-13.74-.03-.47h-4.6l-.06.43-1.96,13.78H2.41L7.41.75h15.03M10.19,17.12h6.58l.14-.14.77-.72.13-.12.03-.17,1.34-9.02.03-.23-.15-.17-.58-.67-.15-.17h-6.57l-.06.43-1.44,10.42-.08.57M71.81,40.75l-5,35.48h-5.69l-4.72-21.98-.59-2.75-.39,2.78-3.11,21.94h-5.09l5-35.48h5.69l4.67,21.97.58,2.75.4-2.78,3.16-21.94h5.09M48.46,40.75l-11.62,35.48h-6.94l-1.63-35.48h4.99l.71,26.64.08,3,.9-2.86,8.39-26.77h5.14M25.84,40.75l-10.6,15.54-.13.2.07.23,5.72,19.52h-5.53l-3.83-13.03-.3-1.02-.59.88-3.55,5.23-.06.09-.02.11-1.14,7.73H.86l5-35.48h4.99l-2.32,16.09-.32,2.22,1.23-1.88,10.8-16.43h5.6M72.27,80.75l-5,35.48h-5.69l-4.72-21.98-.59-2.75-.39,2.78-3.11,21.94h-5.09l5-35.48h5.69l4.67,21.97.58,2.75.4-2.78,3.16-21.94h5.09M45.45,80.75l2.25,2.63-2.15,15.92-3.08,2.73h-9.7l-.06.43-1.96,13.78h-5.09l5-35.48h14.79M33.44,97.12h6.24l.14-.13.82-.72.14-.12.03-.18,1.34-9.02.04-.24-.16-.18-.62-.67-.15-.16h-6.22l-.06.43-1.44,10.42-.08.57M26.78,80.75l-11.36,23.04-.04.07v.08s-1.77,12.29-1.77,12.29h-5.04l1.74-12.15v-.09s0-.09,0-.09l-4.87-23.16h5.49l2.48,14.9.27,1.62.68-1.49,6.83-15.02h5.59M71.92.25h-18.29l-.82,5.91h11.81l-15.36,24.67-.77,5.9h18.29l.82-5.9h-11.81l15.36-24.67.77-5.91h0ZM50.13.25h-6.1l-3.22,22.37L36.06.25h-6.53l-5.14,36.48h6.1l3.17-22.37,4.8,22.37h6.53L50.13.25h0ZM22.67.25H6.98L1.84,36.73h6.1l2.02-14.21h3.7l.96,14.21h5.9l-.91-14.21,3.41-2.98,2.21-16.32-2.54-2.98h0ZM10.77,16.62l1.44-10.42h5.9l.58.67-1.34,9.02-.77.72h-5.81ZM72.39,40.25h-6.1l-3.22,22.37-4.75-22.37h-6.53l-5.14,36.48h6.1l3.17-22.37,4.8,22.37h6.53l5.14-36.48h0ZM49.15,40.25h-6.19l-8.5,27.12-.72-27.12h-6l1.68,36.48h7.78l11.95-36.48h0ZM26.79,40.25h-6.82l-10.94,16.66,2.4-16.66h-6L.29,76.73h6l1.2-8.16,3.55-5.23,3.94,13.39h6.58l-5.9-20.16,11.14-16.32h0ZM72.85,80.25h-6.1l-3.22,22.37-4.75-22.37h-6.53l-5.14,36.48h6.1l3.17-22.37,4.8,22.37h6.53l5.14-36.48h0ZM45.68,80.25h-15.46l-5.14,36.48h6.1l2.02-14.21h9.46l3.36-2.98,2.21-16.32-2.54-2.98h0ZM34.02,96.62l1.44-10.42h5.57l.62.67-1.34,9.02-.82.72h-5.47ZM27.59,80.25h-6.72l-6.96,15.31-2.54-15.31h-6.53l4.99,23.76-1.82,12.72h6.05l1.82-12.72,11.71-23.76h0Z"/>
    </g>
  </g>
</svg>