<?xml version="1.0" encoding="UTF-8"?>
<svg id="Layer_2" data-name="Layer 2" xmlns="http://www.w3.org/2000/svg" viewBox="0 0 217.88 43.03">
  <defs>
    <style>
      .cls-1 {
        fill: #000;
      }

      .cls-1, .cls-2 {
        stroke-width: 0px;
      }

      .cls-2 {
        fill: #fff;
      }
    </style>
  </defs>
  <g id="Layer_1-2" data-name="Layer 1">
    <polygon class="cls-1" points="217.77 6.55 217.78 6.45 217.67 6.45 217.68 6.35 217.57 6.35 217.58 6.25 217.47 6.25 217.48 6.15 217.37 6.15 217.38 6.05 217.27 6.05 217.28 5.95 217.17 5.95 217.18 5.85 217.07 5.85 217.08 5.75 216.97 5.75 216.98 5.65 216.87 5.65 216.88 5.55 216.77 5.55 216.78 5.45 216.67 5.45 216.68 5.35 216.57 5.35 216.58 5.25 216.47 5.25 216.48 5.15 216.37 5.15 216.38 5.05 216.27 5.05 216.28 4.95 216.17 4.95 216.18 4.85 216.07 4.85 216.08 4.75 215.97 4.75 215.98 4.65 215.87 4.65 215.88 4.55 215.77 4.55 215.78 4.45 215.67 4.45 215.68 4.35 215.57 4.35 215.58 4.25 215.47 4.25 215.48 4.15 215.37 4.15 215.38 4.05 215.27 4.05 215.28 3.95 215.17 3.95 215.18 3.85 215.07 3.85 215.08 3.75 214.97 3.75 214.98 3.65 214.87 3.65 214.88 3.55 214.77 3.55 214.78 3.45 214.67 3.45 214.68 3.35 214.57 3.35 214.58 3.25 214.47 3.25 214.48 3.15 214.37 3.15 214.38 3.05 214.27 3.05 214.28 2.95 214.17 2.95 214.18 2.85 214.07 2.85 214.08 2.75 213.97 2.75 213.98 2.65 213.87 2.65 213.88 2.55 213.77 2.55 213.78 2.45 213.67 2.45 213.68 2.35 213.57 2.35 213.58 2.25 213.47 2.25 213.48 2.15 213.37 2.15 213.38 2.05 213.27 2.05 213.28 1.95 213.17 1.95 213.18 1.85 213.07 1.85 213.08 1.75 212.97 1.75 212.98 1.65 212.87 1.65 212.88 1.55 212.77 1.55 212.78 1.45 212.67 1.45 212.68 1.35 212.57 1.35 212.58 1.25 212.47 1.25 212.48 1.15 212.37 1.15 212.38 1.05 212.27 1.05 212.28 .95 212.17 .95 212.18 .85 212.07 .85 212.08 .75 211.97 .75 211.98 .65 211.87 .65 211.88 .55 211.77 .55 211.78 .45 211.67 .45 211.68 .35 211.57 .35 211.58 .25 205.49 .25 204.27 8.69 203.82 6.55 203.74 6.55 203.72 6.45 203.64 6.45 203.62 6.35 203.54 6.35 203.52 6.25 203.44 6.25 203.42 6.15 203.34 6.15 203.32 6.05 203.24 6.05 203.22 5.95 203.14 5.95 203.12 5.85 203.04 5.85 203.02 5.75 202.94 5.75 202.92 5.65 202.84 5.65 202.82 5.55 202.74 5.55 202.72 5.45 202.64 5.45 202.62 5.35 202.54 5.35 202.52 5.25 202.44 5.25 202.42 5.15 202.34 5.15 202.32 5.05 202.24 5.05 202.22 4.95 202.14 4.95 202.12 4.85 202.04 4.85 202.02 4.75 201.94 4.75 201.92 4.65 201.84 4.65 201.82 4.55 201.74 4.55 201.72 4.45 201.64 4.45 201.62 4.35 201.54 4.35 201.52 4.25 201.44 4.25 201.42 4.15 201.34 4.15 201.32 4.05 201.24 4.05 201.22 3.95 201.14 3.95 201.12 3.85 201.04 3.85 201.02 3.75 200.94 3.75 200.92 3.65 200.84 3.65 200.82 3.55 200.74 3.55 200.72 3.45 200.64 3.45 200.62 3.35 200.54 3.35 200.52 3.25 200.44 3.25 200.42 3.15 200.34 3.15 200.32 3.05 200.24 3.05 200.22 2.95 200.14 2.95 200.12 2.85 200.04 2.85 200.02 2.75 199.94 2.75 199.92 2.65 199.84 2.65 199.82 2.55 199.74 2.55 199.72 2.45 199.64 2.45 199.62 2.35 199.54 2.35 199.52 2.25 199.44 2.25 199.42 2.15 199.34 2.15 199.32 2.05 199.24 2.05 199.22 1.95 199.14 1.95 199.12 1.85 199.04 1.85 199.02 1.75 198.94 1.75 198.92 1.65 198.84 1.65 198.82 1.55 198.74 1.55 198.72 1.45 198.64 1.45 198.62 1.35 198.54 1.35 198.52 1.25 198.44 1.25 198.42 1.15 198.34 1.15 198.32 1.05 198.24 1.05 198.22 .95 198.14 .95 198.12 .85 198.04 .85 198.02 .75 197.94 .75 197.92 .65 197.84 .65 197.82 .55 197.74 .55 197.72 .45 197.64 .45 197.62 .35 197.54 .35 197.52 .25 190.99 .25 190.18 6.02 190.11 5.95 190.1 5.95 190.01 5.85 190 5.85 189.91 5.75 189.9 5.75 189.82 5.65 189.8 5.65 189.71 5.55 189.7 5.55 189.61 5.45 189.6 5.45 189.51 5.35 189.5 5.35 189.41 5.25 189.4 5.25 189.32 5.15 189.3 5.15 189.21 5.05 189.2 5.05 189.11 4.95 189.1 4.95 189.01 4.85 189 4.85 188.91 4.75 188.9 4.75 188.82 4.65 188.8 4.65 188.71 4.55 188.7 4.55 188.61 4.45 188.6 4.45 188.51 4.35 188.5 4.35 188.41 4.25 188.4 4.25 188.32 4.15 188.3 4.15 188.21 4.05 188.2 4.05 188.11 3.95 188.1 3.95 188.01 3.85 188 3.85 187.91 3.75 187.9 3.75 187.82 3.65 187.8 3.65 187.71 3.55 187.7 3.55 187.61 3.45 187.6 3.45 187.51 3.35 187.5 3.35 187.41 3.25 187.4 3.25 187.32 3.15 187.3 3.15 187.21 3.05 187.2 3.05 187.11 2.95 187.1 2.95 187.01 2.85 187 2.85 186.91 2.75 186.9 2.75 186.82 2.65 186.8 2.65 186.71 2.55 186.7 2.55 186.61 2.45 186.6 2.45 186.51 2.35 186.5 2.35 186.41 2.25 186.4 2.25 186.32 2.15 186.3 2.15 186.21 2.05 186.2 2.05 186.11 1.95 186.1 1.95 186.01 1.85 186 1.85 185.91 1.75 185.9 1.75 185.82 1.65 185.8 1.65 185.71 1.55 185.7 1.55 185.61 1.45 185.6 1.45 185.51 1.35 185.5 1.35 185.41 1.25 185.4 1.25 185.32 1.15 185.3 1.15 185.21 1.05 185.2 1.05 185.11 .95 185.1 .95 185.01 .85 185 .85 184.91 .75 184.9 .75 184.82 .65 184.8 .65 184.71 .55 184.7 .55 184.61 .45 184.6 .45 184.51 .35 184.5 .35 184.41 .25 168.96 .25 168.62 2.65 168.57 2.65 168.62 2.55 168.47 2.55 168.52 2.45 168.37 2.45 168.42 2.35 168.27 2.35 168.32 2.25 168.17 2.25 168.22 2.15 168.07 2.15 168.12 2.05 167.97 2.05 168.02 1.95 167.87 1.95 167.92 1.85 167.77 1.85 167.82 1.75 167.67 1.75 167.72 1.65 167.57 1.65 167.62 1.55 167.47 1.55 167.52 1.45 167.37 1.45 167.42 1.35 167.27 1.35 167.32 1.25 167.17 1.25 167.22 1.15 167.07 1.15 167.12 1.05 166.97 1.05 167.02 .95 166.87 .95 166.92 .85 166.77 .85 166.82 .75 166.67 .75 166.72 .65 166.57 .65 166.62 .55 166.47 .55 166.52 .45 166.37 .45 166.42 .35 166.27 .35 166.32 .25 159.6 .25 156.49 7.1 156.39 6.55 156.31 6.55 156.29 6.45 156.21 6.45 156.19 6.35 156.11 6.35 156.09 6.25 156.01 6.25 155.99 6.15 155.91 6.15 155.89 6.05 155.81 6.05 155.79 5.95 155.71 5.95 155.69 5.85 155.61 5.85 155.59 5.75 155.51 5.75 155.49 5.65 155.41 5.65 155.39 5.55 155.31 5.55 155.29 5.45 155.21 5.45 155.19 5.35 155.11 5.35 155.09 5.25 155.01 5.25 154.99 5.15 154.91 5.15 154.89 5.05 154.81 5.05 154.79 4.95 154.71 4.95 154.69 4.85 154.61 4.85 154.59 4.75 154.51 4.75 154.49 4.65 154.41 4.65 154.39 4.55 154.31 4.55 154.29 4.45 154.21 4.45 154.19 4.35 154.11 4.35 154.09 4.25 154.01 4.25 153.99 4.15 153.91 4.15 153.89 4.05 153.81 4.05 153.79 3.95 153.71 3.95 153.69 3.85 153.61 3.85 153.59 3.75 153.51 3.75 153.49 3.65 153.41 3.65 153.39 3.55 153.31 3.55 153.29 3.45 153.21 3.45 153.19 3.35 153.11 3.35 153.09 3.25 153.01 3.25 152.99 3.15 152.91 3.15 152.89 3.05 152.81 3.05 152.79 2.95 152.71 2.95 152.69 2.85 152.61 2.85 152.59 2.75 152.51 2.75 152.49 2.65 152.41 2.65 152.39 2.55 152.31 2.55 152.29 2.45 152.21 2.45 152.19 2.35 152.11 2.35 152.09 2.25 152.01 2.25 151.99 2.15 151.91 2.15 151.89 2.05 151.81 2.05 151.79 1.95 151.71 1.95 151.69 1.85 151.61 1.85 151.59 1.75 151.51 1.75 151.49 1.65 151.41 1.65 151.39 1.55 151.31 1.55 151.29 1.45 151.21 1.45 151.19 1.35 151.11 1.35 151.09 1.25 151.01 1.25 150.99 1.15 150.91 1.15 150.89 1.05 150.81 1.05 150.79 .95 150.71 .95 150.69 .85 150.61 .85 150.59 .75 150.51 .75 150.49 .65 150.41 .65 150.39 .55 150.31 .55 150.29 .45 150.21 .45 150.19 .35 150.11 .35 150.09 .25 143.57 .25 144.3 3.75 144.22 3.75 144.23 3.65 144.12 3.65 144.13 3.55 144.02 3.55 144.03 3.45 143.92 3.45 143.93 3.35 143.82 3.35 143.83 3.25 143.72 3.25 143.73 3.15 143.62 3.15 143.63 3.05 143.52 3.05 143.53 2.95 143.42 2.95 143.43 2.85 143.32 2.85 143.33 2.75 143.22 2.75 143.23 2.65 143.12 2.65 143.13 2.55 143.02 2.55 143.03 2.45 142.92 2.45 142.93 2.35 142.82 2.35 142.83 2.25 142.72 2.25 142.73 2.15 142.62 2.15 142.63 2.05 142.52 2.05 142.53 1.95 142.42 1.95 142.43 1.85 142.32 1.85 142.33 1.75 142.22 1.75 142.23 1.65 142.12 1.65 142.13 1.55 142.02 1.55 142.03 1.45 141.92 1.45 141.93 1.35 141.82 1.35 141.83 1.25 141.72 1.25 141.73 1.15 141.62 1.15 141.63 1.05 141.52 1.05 141.53 .95 141.42 .95 141.43 .85 141.32 .85 141.33 .75 141.22 .75 141.23 .65 141.12 .65 141.13 .55 141.02 .55 141.03 .45 140.92 .45 140.93 .35 140.82 .35 140.83 .25 134.73 .25 133.52 8.69 133.07 6.55 132.99 6.55 132.97 6.45 132.89 6.45 132.87 6.35 132.79 6.35 132.77 6.25 132.69 6.25 132.67 6.15 132.59 6.15 132.57 6.05 132.49 6.05 132.47 5.95 132.39 5.95 132.37 5.85 132.29 5.85 132.27 5.75 132.19 5.75 132.17 5.65 132.09 5.65 132.07 5.55 131.99 5.55 131.97 5.45 131.89 5.45 131.87 5.35 131.79 5.35 131.77 5.25 131.69 5.25 131.67 5.15 131.59 5.15 131.57 5.05 131.49 5.05 131.47 4.95 131.39 4.95 131.37 4.85 131.29 4.85 131.27 4.75 131.19 4.75 131.17 4.65 131.09 4.65 131.07 4.55 130.99 4.55 130.97 4.45 130.89 4.45 130.87 4.35 130.79 4.35 130.77 4.25 130.69 4.25 130.67 4.15 130.59 4.15 130.57 4.05 130.49 4.05 130.47 3.95 130.39 3.95 130.37 3.85 130.29 3.85 130.27 3.75 130.19 3.75 130.17 3.65 130.09 3.65 130.07 3.55 129.99 3.55 129.97 3.45 129.89 3.45 129.87 3.35 129.79 3.35 129.77 3.25 129.69 3.25 129.67 3.15 129.59 3.15 129.57 3.05 129.49 3.05 129.47 2.95 129.39 2.95 129.37 2.85 129.29 2.85 129.27 2.75 129.19 2.75 129.17 2.65 129.09 2.65 129.07 2.55 128.99 2.55 128.97 2.45 128.89 2.45 128.87 2.35 128.79 2.35 128.77 2.25 128.69 2.25 128.67 2.15 128.59 2.15 128.57 2.05 128.49 2.05 128.47 1.95 128.39 1.95 128.37 1.85 128.29 1.85 128.27 1.75 128.19 1.75 128.17 1.65 128.09 1.65 128.07 1.55 127.99 1.55 127.97 1.45 127.89 1.45 127.87 1.35 127.79 1.35 127.77 1.25 127.69 1.25 127.67 1.15 127.59 1.15 127.57 1.05 127.49 1.05 127.47 .95 127.39 .95 127.37 .85 127.29 .85 127.27 .75 127.19 .75 127.17 .65 127.09 .65 127.07 .55 126.99 .55 126.97 .45 126.89 .45 126.87 .35 126.79 .35 126.77 .25 120.24 .25 119.9 2.65 119.87 2.65 119.9 2.55 119.77 2.55 119.8 2.45 119.67 2.45 119.7 2.35 119.57 2.35 119.6 2.25 119.47 2.25 119.5 2.15 119.37 2.15 119.4 2.05 119.27 2.05 119.3 1.95 119.17 1.95 119.2 1.85 119.07 1.85 119.1 1.75 118.97 1.75 119 1.65 118.87 1.65 118.9 1.55 118.77 1.55 118.8 1.45 118.67 1.45 118.7 1.35 118.57 1.35 118.6 1.25 118.47 1.25 118.5 1.15 118.37 1.15 118.4 1.05 118.27 1.05 118.3 .95 118.17 .95 118.2 .85 118.07 .85 118.1 .75 117.97 .75 118 .65 117.87 .65 117.9 .55 117.77 .55 117.8 .45 117.67 .45 117.7 .35 117.57 .35 117.6 .25 111.41 .25 108.56 9.33 108.49 6.55 108.39 6.55 108.39 6.45 108.29 6.45 108.29 6.35 108.19 6.35 108.19 6.25 108.09 6.25 108.09 6.15 107.99 6.15 107.99 6.05 107.89 6.05 107.89 5.95 107.79 5.95 107.79 5.85 107.69 5.85 107.69 5.75 107.59 5.75 107.59 5.65 107.49 5.65 107.49 5.55 107.39 5.55 107.39 5.45 107.29 5.45 107.29 5.35 107.19 5.35 107.19 5.25 107.09 5.25 107.09 5.15 106.99 5.15 106.99 5.05 106.89 5.05 106.89 4.95 106.79 4.95 106.79 4.85 106.69 4.85 106.69 4.75 106.59 4.75 106.59 4.65 106.49 4.65 106.49 4.55 106.39 4.55 106.39 4.45 106.29 4.45 106.29 4.35 106.19 4.35 106.19 4.25 106.09 4.25 106.09 4.15 105.99 4.15 105.99 4.05 105.89 4.05 105.89 3.95 105.79 3.95 105.79 3.85 105.69 3.85 105.69 3.75 105.59 3.75 105.59 3.65 105.49 3.65 105.49 3.55 105.39 3.55 105.39 3.45 105.29 3.45 105.29 3.35 105.19 3.35 105.19 3.25 105.09 3.25 105.09 3.15 104.99 3.15 104.99 3.05 104.89 3.05 104.89 2.95 104.79 2.95 104.79 2.85 104.69 2.85 104.69 2.75 104.59 2.75 104.59 2.65 104.49 2.65 104.49 2.55 104.39 2.55 104.39 2.45 104.29 2.45 104.29 2.35 104.19 2.35 104.19 2.25 104.09 2.25 104.09 2.15 103.99 2.15 103.99 2.05 103.89 2.05 103.89 1.95 103.79 1.95 103.79 1.85 103.69 1.85 103.69 1.75 103.59 1.75 103.59 1.65 103.49 1.65 103.49 1.55 103.39 1.55 103.39 1.45 103.29 1.45 103.29 1.35 103.19 1.35 103.19 1.25 103.09 1.25 103.09 1.15 102.99 1.15 102.99 1.05 102.89 1.05 102.89 .95 102.79 .95 102.79 .85 102.69 .85 102.69 .75 102.59 .75 102.59 .65 102.49 .65 102.49 .55 102.39 .55 102.39 .45 102.29 .45 102.29 .35 102.19 .35 102.19 .25 96.19 .25 96.24 1.35 96.16 1.35 96.23 1.25 96.07 1.25 96.13 1.15 95.96 1.15 96.03 1.05 95.87 1.05 95.93 .95 95.76 .95 95.83 .85 95.66 .85 95.73 .75 95.57 .75 95.63 .65 95.46 .65 95.53 .55 95.37 .55 95.43 .45 95.26 .45 95.33 .35 95.16 .35 95.23 .25 88.42 .25 85 5.45 84.96 5.45 84.97 5.35 84.86 5.35 84.87 5.25 84.76 5.25 84.77 5.15 84.66 5.15 84.67 5.05 84.56 5.05 84.57 4.95 84.46 4.95 84.47 4.85 84.36 4.85 84.37 4.75 84.26 4.75 84.27 4.65 84.16 4.65 84.17 4.55 84.06 4.55 84.07 4.45 83.96 4.45 83.97 4.35 83.86 4.35 83.87 4.25 83.76 4.25 83.77 4.15 83.66 4.15 83.67 4.05 83.56 4.05 83.57 3.95 83.46 3.95 83.47 3.85 83.36 3.85 83.37 3.75 83.26 3.75 83.27 3.65 83.16 3.65 83.17 3.55 83.06 3.55 83.07 3.45 82.96 3.45 82.97 3.35 82.86 3.35 82.87 3.25 82.76 3.25 82.77 3.15 82.66 3.15 82.67 3.05 82.56 3.05 82.57 2.95 82.46 2.95 82.47 2.85 82.36 2.85 82.37 2.75 82.26 2.75 82.27 2.65 82.16 2.65 82.17 2.55 82.06 2.55 82.07 2.45 81.96 2.45 81.97 2.35 81.86 2.35 81.87 2.25 81.76 2.25 81.77 2.15 81.66 2.15 81.67 2.05 81.56 2.05 81.57 1.95 81.46 1.95 81.47 1.85 81.36 1.85 81.37 1.75 81.26 1.75 81.27 1.65 81.16 1.65 81.17 1.55 81.06 1.55 81.07 1.45 80.96 1.45 80.97 1.35 80.86 1.35 80.87 1.25 80.76 1.25 80.77 1.15 80.66 1.15 80.67 1.05 80.56 1.05 80.57 .95 80.46 .95 80.47 .85 80.36 .85 80.37 .75 80.26 .75 80.27 .65 80.16 .65 80.17 .55 80.06 .55 80.07 .45 79.96 .45 79.97 .35 79.86 .35 79.87 .25 73.87 .25 73.44 3.35 73.36 3.35 73.37 3.25 73.26 3.25 73.27 3.15 73.16 3.15 73.17 3.05 73.06 3.05 73.07 2.95 72.96 2.95 72.97 2.85 72.86 2.85 72.87 2.75 72.76 2.75 72.77 2.65 72.66 2.65 72.67 2.55 72.56 2.55 72.57 2.45 72.46 2.45 72.47 2.35 72.36 2.35 72.37 2.25 72.26 2.25 72.27 2.15 72.16 2.15 72.17 2.05 72.06 2.05 72.07 1.95 71.96 1.95 71.97 1.85 71.86 1.85 71.87 1.75 71.76 1.75 71.77 1.65 71.66 1.65 71.67 1.55 71.56 1.55 71.57 1.45 71.46 1.45 71.47 1.35 71.36 1.35 71.37 1.25 71.26 1.25 71.27 1.15 71.16 1.15 71.17 1.05 71.06 1.05 71.07 .95 70.96 .95 70.97 .85 70.86 .85 70.87 .75 70.76 .75 70.77 .65 70.66 .65 70.67 .55 70.56 .55 70.57 .45 70.46 .45 70.47 .35 70.36 .35 70.37 .25 52.08 .25 51.65 3.35 51.56 3.35 51.58 3.25 51.46 3.25 51.48 3.15 51.36 3.15 51.38 3.05 51.26 3.05 51.28 2.95 51.16 2.95 51.18 2.85 51.06 2.85 51.08 2.75 50.96 2.75 50.98 2.65 50.86 2.65 50.88 2.55 50.76 2.55 50.78 2.45 50.66 2.45 50.68 2.35 50.56 2.35 50.58 2.25 50.46 2.25 50.48 2.15 50.36 2.15 50.38 2.05 50.26 2.05 50.28 1.95 50.16 1.95 50.18 1.85 50.06 1.85 50.08 1.75 49.96 1.75 49.98 1.65 49.86 1.65 49.88 1.55 49.76 1.55 49.78 1.45 49.66 1.45 49.68 1.35 49.56 1.35 49.58 1.25 49.46 1.25 49.48 1.15 49.36 1.15 49.38 1.05 49.26 1.05 49.28 .95 49.16 .95 49.18 .85 49.06 .85 49.08 .75 48.96 .75 48.98 .65 48.86 .65 48.88 .55 48.76 .55 48.78 .45 48.66 .45 48.68 .35 48.56 .35 48.58 .25 42.48 .25 41.27 8.69 40.81 6.55 40.73 6.55 40.71 6.45 40.63 6.45 40.61 6.35 40.53 6.35 40.51 6.25 40.43 6.25 40.41 6.15 40.33 6.15 40.31 6.05 40.23 6.05 40.21 5.95 40.13 5.95 40.11 5.85 40.03 5.85 40.01 5.75 39.93 5.75 39.91 5.65 39.83 5.65 39.81 5.55 39.73 5.55 39.71 5.45 39.63 5.45 39.61 5.35 39.53 5.35 39.51 5.25 39.43 5.25 39.41 5.15 39.33 5.15 39.31 5.05 39.23 5.05 39.21 4.95 39.13 4.95 39.11 4.85 39.03 4.85 39.01 4.75 38.93 4.75 38.91 4.65 38.83 4.65 38.81 4.55 38.73 4.55 38.71 4.45 38.63 4.45 38.61 4.35 38.53 4.35 38.51 4.25 38.43 4.25 38.41 4.15 38.33 4.15 38.31 4.05 38.23 4.05 38.21 3.95 38.13 3.95 38.11 3.85 38.03 3.85 38.01 3.75 37.93 3.75 37.91 3.65 37.83 3.65 37.81 3.55 37.73 3.55 37.71 3.45 37.63 3.45 37.61 3.35 37.53 3.35 37.51 3.25 37.43 3.25 37.41 3.15 37.33 3.15 37.31 3.05 37.23 3.05 37.21 2.95 37.13 2.95 37.11 2.85 37.03 2.85 37.01 2.75 36.93 2.75 36.91 2.65 36.83 2.65 36.81 2.55 36.73 2.55 36.71 2.45 36.63 2.45 36.61 2.35 36.53 2.35 36.51 2.25 36.43 2.25 36.41 2.15 36.33 2.15 36.31 2.05 36.23 2.05 36.21 1.95 36.13 1.95 36.11 1.85 36.03 1.85 36.01 1.75 35.93 1.75 35.91 1.65 35.83 1.65 35.81 1.55 35.73 1.55 35.71 1.45 35.63 1.45 35.61 1.35 35.53 1.35 35.51 1.25 35.43 1.25 35.41 1.15 35.33 1.15 35.31 1.05 35.23 1.05 35.21 .95 35.13 .95 35.11 .85 35.03 .85 35.01 .75 34.93 .75 34.91 .65 34.83 .65 34.81 .55 34.73 .55 34.71 .45 34.63 .45 34.61 .35 34.53 .35 34.51 .25 27.98 .25 27.14 6.27 27.12 6.25 27.11 6.25 27.02 6.15 27.01 6.15 26.92 6.05 26.91 6.05 26.82 5.95 26.81 5.95 26.72 5.85 26.71 5.85 26.62 5.75 26.61 5.75 26.52 5.65 26.51 5.65 26.42 5.55 26.41 5.55 26.32 5.45 26.31 5.45 26.22 5.35 26.21 5.35 26.12 5.25 26.11 5.25 26.02 5.15 26.01 5.15 25.92 5.05 25.91 5.05 25.82 4.95 25.81 4.95 25.72 4.85 25.71 4.85 25.62 4.75 25.61 4.75 25.52 4.65 25.51 4.65 25.42 4.55 25.41 4.55 25.32 4.45 25.31 4.45 25.22 4.35 25.21 4.35 25.12 4.25 25.11 4.25 25.02 4.15 25.01 4.15 24.92 4.05 24.91 4.05 24.82 3.95 24.81 3.95 24.72 3.85 24.71 3.85 24.62 3.75 24.61 3.75 24.52 3.65 24.51 3.65 24.42 3.55 24.41 3.55 24.32 3.45 24.31 3.45 24.22 3.35 24.21 3.35 24.12 3.25 24.11 3.25 24.02 3.15 24.01 3.15 23.92 3.05 23.91 3.05 23.82 2.95 23.81 2.95 23.72 2.85 23.71 2.85 23.62 2.75 23.61 2.75 23.52 2.65 23.51 2.65 23.42 2.55 23.41 2.55 23.32 2.45 23.31 2.45 23.22 2.35 23.21 2.35 23.12 2.25 23.11 2.25 23.02 2.15 23.01 2.15 22.92 2.05 22.91 2.05 22.82 1.95 22.81 1.95 22.72 1.85 22.71 1.85 22.62 1.75 22.61 1.75 22.52 1.65 22.51 1.65 22.42 1.55 22.41 1.55 22.32 1.45 22.31 1.45 22.22 1.35 22.21 1.35 22.12 1.25 22.11 1.25 22.02 1.15 22.01 1.15 21.92 1.05 21.91 1.05 21.82 .95 21.81 .95 21.72 .85 21.71 .85 21.62 .75 21.61 .75 21.52 .65 21.51 .65 21.42 .55 21.41 .55 21.32 .45 21.31 .45 21.22 .35 21.21 .35 21.12 .25 5.42 .25 .29 36.73 .4 36.73 .39 36.83 .5 36.83 .49 36.93 .6 36.93 .59 37.03 .7 37.03 .69 37.13 .8 37.13 .79 37.23 .9 37.23 .89 37.33 1 37.33 .99 37.43 1.1 37.43 1.09 37.53 1.2 37.53 1.19 37.63 1.3 37.63 1.29 37.73 1.4 37.73 1.39 37.83 1.5 37.83 1.49 37.93 1.6 37.93 1.59 38.03 1.7 38.03 1.69 38.13 1.8 38.13 1.79 38.23 1.9 38.23 1.89 38.33 2 38.33 1.99 38.43 2.1 38.43 2.09 38.53 2.2 38.53 2.19 38.63 2.3 38.63 2.29 38.73 2.4 38.73 2.39 38.83 2.5 38.83 2.49 38.93 2.6 38.93 2.59 39.03 2.7 39.03 2.69 39.13 2.8 39.13 2.79 39.23 2.9 39.23 2.89 39.33 3 39.33 2.99 39.43 3.1 39.43 3.09 39.53 3.2 39.53 3.19 39.63 3.3 39.63 3.29 39.73 3.4 39.73 3.39 39.83 3.5 39.83 3.49 39.93 3.6 39.93 3.59 40.03 3.7 40.03 3.69 40.13 3.8 40.13 3.79 40.23 3.9 40.23 3.89 40.33 4 40.33 3.99 40.43 4.1 40.43 4.09 40.53 4.2 40.53 4.19 40.63 4.3 40.63 4.29 40.73 4.4 40.73 4.39 40.83 4.5 40.83 4.49 40.93 4.6 40.93 4.59 41.03 4.7 41.03 4.69 41.13 4.8 41.13 4.79 41.23 4.9 41.23 4.89 41.33 5 41.33 4.99 41.43 5.1 41.43 5.09 41.53 5.2 41.53 5.19 41.63 5.3 41.63 5.29 41.73 5.4 41.73 5.39 41.83 5.5 41.83 5.49 41.93 5.6 41.93 5.59 42.03 5.7 42.03 5.69 42.13 5.8 42.13 5.79 42.23 5.9 42.23 5.89 42.33 6 42.33 5.99 42.43 6.1 42.43 6.09 42.53 6.2 42.53 6.19 42.63 6.3 42.63 6.29 42.73 6.4 42.73 6.39 42.83 6.5 42.83 6.49 42.93 6.6 42.93 6.59 43.03 12.68 43.03 13.52 37.13 13.55 37.13 13.56 37.23 13.65 37.23 13.66 37.33 13.75 37.33 13.76 37.43 13.85 37.43 13.86 37.53 13.95 37.53 13.96 37.63 14.05 37.63 14.06 37.73 14.15 37.73 14.16 37.83 14.25 37.83 14.26 37.93 14.35 37.93 14.36 38.03 14.45 38.03 14.46 38.13 14.55 38.13 14.56 38.23 14.65 38.23 14.66 38.33 14.75 38.33 14.76 38.43 14.85 38.43 14.86 38.53 14.95 38.53 14.96 38.63 15.05 38.63 15.06 38.73 15.15 38.73 15.16 38.83 15.25 38.83 15.26 38.93 15.35 38.93 15.36 39.03 15.45 39.03 15.46 39.13 15.55 39.13 15.56 39.23 15.65 39.23 15.66 39.33 15.75 39.33 15.76 39.43 15.85 39.43 15.86 39.53 15.95 39.53 15.96 39.63 16.05 39.63 16.06 39.73 16.15 39.73 16.16 39.83 16.25 39.83 16.26 39.93 16.35 39.93 16.36 40.03 16.45 40.03 16.46 40.13 16.55 40.13 16.56 40.23 16.65 40.23 16.66 40.33 16.75 40.33 16.76 40.43 16.85 40.43 16.86 40.53 16.95 40.53 16.96 40.63 17.05 40.63 17.06 40.73 17.15 40.73 17.16 40.83 17.25 40.83 17.26 40.93 17.35 40.93 17.36 41.03 17.45 41.03 17.46 41.13 17.55 41.13 17.56 41.23 17.65 41.23 17.66 41.33 17.75 41.33 17.76 41.43 17.85 41.43 17.86 41.53 17.95 41.53 17.96 41.63 18.05 41.63 18.06 41.73 18.15 41.73 18.16 41.83 18.25 41.83 18.26 41.93 18.35 41.93 18.36 42.03 18.45 42.03 18.46 42.13 18.55 42.13 18.56 42.23 18.65 42.23 18.66 42.33 18.75 42.33 18.76 42.43 18.85 42.43 18.86 42.53 18.95 42.53 18.96 42.63 19.05 42.63 19.06 42.73 19.15 42.73 19.16 42.83 19.25 42.83 19.26 42.93 19.35 42.93 19.36 43.03 25.26 43.03 24.99 38.83 25.06 38.83 25.05 38.93 25.16 38.93 25.15 39.03 25.26 39.03 25.25 39.13 25.36 39.13 25.35 39.23 25.46 39.23 25.45 39.33 25.56 39.33 25.55 39.43 25.66 39.43 25.65 39.53 25.76 39.53 25.75 39.63 25.86 39.63 25.85 39.73 25.96 39.73 25.95 39.83 26.06 39.83 26.05 39.93 26.16 39.93 26.15 40.03 26.26 40.03 26.25 40.13 26.36 40.13 26.35 40.23 26.46 40.23 26.45 40.33 26.56 40.33 26.55 40.43 26.66 40.43 26.65 40.53 26.76 40.53 26.75 40.63 26.86 40.63 26.85 40.73 26.96 40.73 26.95 40.83 27.06 40.83 27.05 40.93 27.16 40.93 27.15 41.03 27.26 41.03 27.25 41.13 27.36 41.13 27.35 41.23 27.46 41.23 27.45 41.33 27.56 41.33 27.55 41.43 27.66 41.43 27.65 41.53 27.76 41.53 27.75 41.63 27.86 41.63 27.85 41.73 27.96 41.73 27.95 41.83 28.06 41.83 28.05 41.93 28.16 41.93 28.15 42.03 28.26 42.03 28.25 42.13 28.36 42.13 28.35 42.23 28.46 42.23 28.45 42.33 28.56 42.33 28.55 42.43 28.66 42.43 28.65 42.53 28.76 42.53 28.75 42.63 28.86 42.63 28.85 42.73 28.96 42.73 28.95 42.83 29.06 42.83 29.05 42.93 29.16 42.93 29.15 43.03 35.24 43.03 36.44 34.55 36.91 36.73 36.99 36.73 37.01 36.83 37.09 36.83 37.11 36.93 37.19 36.93 37.21 37.03 37.29 37.03 37.31 37.13 37.39 37.13 37.41 37.23 37.49 37.23 37.51 37.33 37.59 37.33 37.61 37.43 37.69 37.43 37.71 37.53 37.79 37.53 37.81 37.63 37.89 37.63 37.91 37.73 37.99 37.73 38.01 37.83 38.09 37.83 38.11 37.93 38.19 37.93 38.21 38.03 38.29 38.03 38.31 38.13 38.39 38.13 38.41 38.23 38.49 38.23 38.51 38.33 38.59 38.33 38.61 38.43 38.69 38.43 38.71 38.53 38.79 38.53 38.81 38.63 38.89 38.63 38.91 38.73 38.99 38.73 39.01 38.83 39.09 38.83 39.11 38.93 39.19 38.93 39.21 39.03 39.29 39.03 39.31 39.13 39.39 39.13 39.41 39.23 39.49 39.23 39.51 39.33 39.59 39.33 39.61 39.43 39.69 39.43 39.71 39.53 39.79 39.53 39.81 39.63 39.89 39.63 39.91 39.73 39.99 39.73 40.01 39.83 40.09 39.83 40.11 39.93 40.19 39.93 40.21 40.03 40.29 40.03 40.31 40.13 40.39 40.13 40.41 40.23 40.49 40.23 40.51 40.33 40.59 40.33 40.61 40.43 40.69 40.43 40.71 40.53 40.79 40.53 40.81 40.63 40.89 40.63 40.91 40.73 40.99 40.73 41.01 40.83 41.09 40.83 41.11 40.93 41.19 40.93 41.21 41.03 41.29 41.03 41.31 41.13 41.39 41.13 41.41 41.23 41.49 41.23 41.51 41.33 41.59 41.33 41.61 41.43 41.69 41.43 41.71 41.53 41.79 41.53 41.81 41.63 41.89 41.63 41.91 41.73 41.99 41.73 42.01 41.83 42.09 41.83 42.11 41.93 42.19 41.93 42.21 42.03 42.29 42.03 42.31 42.13 42.39 42.13 42.41 42.23 42.49 42.23 42.51 42.33 42.59 42.33 42.61 42.43 42.69 42.43 42.71 42.53 42.79 42.53 42.81 42.63 42.89 42.63 42.91 42.73 42.99 42.73 43.01 42.83 43.09 42.83 43.11 42.93 43.19 42.93 43.21 43.03 49.74 43.03 50.18 39.93 50.26 39.93 50.24 40.03 50.36 40.03 50.34 40.13 50.46 40.13 50.44 40.23 50.56 40.23 50.54 40.33 50.66 40.33 50.64 40.43 50.76 40.43 50.74 40.53 50.86 40.53 50.84 40.63 50.96 40.63 50.94 40.73 51.06 40.73 51.04 40.83 51.16 40.83 51.14 40.93 51.26 40.93 51.24 41.03 51.36 41.03 51.34 41.13 51.46 41.13 51.44 41.23 51.56 41.23 51.54 41.33 51.66 41.33 51.64 41.43 51.76 41.43 51.74 41.53 51.86 41.53 51.84 41.63 51.96 41.63 51.94 41.73 52.06 41.73 52.04 41.83 52.16 41.83 52.14 41.93 52.26 41.93 52.24 42.03 52.36 42.03 52.34 42.13 52.46 42.13 52.44 42.23 52.56 42.23 52.54 42.33 52.66 42.33 52.64 42.43 52.76 42.43 52.74 42.53 52.86 42.53 52.84 42.63 52.96 42.63 52.94 42.73 53.06 42.73 53.04 42.83 53.16 42.83 53.14 42.93 53.26 42.93 53.24 43.03 71.53 43.03 71.96 39.93 72.05 39.93 72.03 40.03 72.15 40.03 72.14 40.13 72.25 40.13 72.23 40.23 72.35 40.23 72.33 40.33 72.45 40.33 72.44 40.43 72.55 40.43 72.53 40.53 72.65 40.53 72.64 40.63 72.75 40.63 72.73 40.73 72.85 40.73 72.83 40.83 72.95 40.83 72.94 40.93 73.05 40.93 73.03 41.03 73.15 41.03 73.14 41.13 73.25 41.13 73.23 41.23 73.35 41.23 73.33 41.33 73.45 41.33 73.44 41.43 73.55 41.43 73.53 41.53 73.65 41.53 73.64 41.63 73.75 41.63 73.73 41.73 73.85 41.73 73.83 41.83 73.95 41.83 73.94 41.93 74.05 41.93 74.03 42.03 74.15 42.03 74.14 42.13 74.25 42.13 74.23 42.23 74.35 42.23 74.33 42.33 74.45 42.33 74.44 42.43 74.55 42.43 74.53 42.53 74.65 42.53 74.64 42.63 74.75 42.63 74.73 42.73 74.85 42.73 74.83 42.83 74.95 42.83 74.94 42.93 75.05 42.93 75.03 43.03 81.03 43.03 82.23 34.87 82.68 34.21 83.42 36.73 83.49 36.73 83.52 36.83 83.6 36.83 83.62 36.93 83.69 36.93 83.72 37.03 83.8 37.03 83.82 37.13 83.89 37.13 83.92 37.23 83.99 37.23 84.02 37.33 84.1 37.33 84.12 37.43 84.19 37.43 84.22 37.53 84.3 37.53 84.32 37.63 84.39 37.63 84.42 37.73 84.49 37.73 84.52 37.83 84.6 37.83 84.62 37.93 84.69 37.93 84.72 38.03 84.8 38.03 84.82 38.13 84.89 38.13 84.92 38.23 84.99 38.23 85.02 38.33 85.1 38.33 85.12 38.43 85.19 38.43 85.22 38.53 85.3 38.53 85.32 38.63 85.39 38.63 85.42 38.73 85.49 38.73 85.52 38.83 85.6 38.83 85.62 38.93 85.69 38.93 85.72 39.03 85.8 39.03 85.82 39.13 85.89 39.13 85.92 39.23 85.99 39.23 86.02 39.33 86.1 39.33 86.12 39.43 86.19 39.43 86.22 39.53 86.3 39.53 86.32 39.63 86.39 39.63 86.42 39.73 86.49 39.73 86.52 39.83 86.6 39.83 86.62 39.93 86.69 39.93 86.72 40.03 86.8 40.03 86.82 40.13 86.89 40.13 86.92 40.23 86.99 40.23 87.02 40.33 87.1 40.33 87.12 40.43 87.19 40.43 87.22 40.53 87.3 40.53 87.32 40.63 87.39 40.63 87.42 40.73 87.49 40.73 87.52 40.83 87.6 40.83 87.62 40.93 87.69 40.93 87.72 41.03 87.8 41.03 87.82 41.13 87.89 41.13 87.92 41.23 87.99 41.23 88.02 41.33 88.1 41.33 88.12 41.43 88.19 41.43 88.22 41.53 88.3 41.53 88.32 41.63 88.39 41.63 88.42 41.73 88.49 41.73 88.52 41.83 88.6 41.83 88.62 41.93 88.69 41.93 88.72 42.03 88.8 42.03 88.82 42.13 88.89 42.13 88.92 42.23 88.99 42.23 89.02 42.33 89.1 42.33 89.12 42.43 89.19 42.43 89.22 42.53 89.3 42.53 89.32 42.63 89.39 42.63 89.42 42.73 89.49 42.73 89.52 42.83 89.6 42.83 89.62 42.93 89.69 42.93 89.72 43.03 96.3 43.03 90.4 22.87 96.8 13.49 97.87 36.73 97.96 36.73 97.97 36.83 98.07 36.83 98.07 36.93 98.16 36.93 98.17 37.03 98.27 37.03 98.27 37.13 98.37 37.13 98.37 37.23 98.46 37.23 98.47 37.33 98.57 37.33 98.57 37.43 98.66 37.43 98.67 37.53 98.77 37.53 98.77 37.63 98.87 37.63 98.87 37.73 98.96 37.73 98.97 37.83 99.07 37.83 99.07 37.93 99.16 37.93 99.17 38.03 99.27 38.03 99.27 38.13 99.37 38.13 99.37 38.23 99.46 38.23 99.47 38.33 99.57 38.33 99.57 38.43 99.66 38.43 99.67 38.53 99.77 38.53 99.77 38.63 99.87 38.63 99.87 38.73 99.96 38.73 99.97 38.83 100.07 38.83 100.07 38.93 100.16 38.93 100.17 39.03 100.27 39.03 100.27 39.13 100.37 39.13 100.37 39.23 100.46 39.23 100.47 39.33 100.57 39.33 100.57 39.43 100.66 39.43 100.67 39.53 100.77 39.53 100.77 39.63 100.87 39.63 100.87 39.73 100.96 39.73 100.97 39.83 101.07 39.83 101.07 39.93 101.16 39.93 101.17 40.03 101.27 40.03 101.27 40.13 101.37 40.13 101.37 40.23 101.46 40.23 101.47 40.33 101.57 40.33 101.57 40.43 101.66 40.43 101.67 40.53 101.77 40.53 101.77 40.63 101.87 40.63 101.87 40.73 101.96 40.73 101.97 40.83 102.07 40.83 102.07 40.93 102.16 40.93 102.17 41.03 102.27 41.03 102.27 41.13 102.37 41.13 102.37 41.23 102.46 41.23 102.47 41.33 102.57 41.33 102.57 41.43 102.66 41.43 102.67 41.53 102.77 41.53 102.77 41.63 102.87 41.63 102.87 41.73 102.96 41.73 102.97 41.83 103.07 41.83 103.07 41.93 103.16 41.93 103.17 42.03 103.27 42.03 103.27 42.13 103.37 42.13 103.37 42.23 103.46 42.23 103.47 42.33 103.57 42.33 103.57 42.43 103.66 42.43 103.67 42.53 103.77 42.53 103.77 42.63 103.87 42.63 103.87 42.73 103.96 42.73 103.97 42.83 104.07 42.83 104.07 42.93 104.16 42.93 104.17 43.03 111.95 43.03 115.92 30.9 115.1 36.73 115.21 36.73 115.2 36.83 115.32 36.83 115.3 36.93 115.41 36.93 115.4 37.03 115.52 37.03 115.5 37.13 115.62 37.13 115.6 37.23 115.71 37.23 115.7 37.33 115.82 37.33 115.8 37.43 115.91 37.43 115.9 37.53 116.02 37.53 116 37.63 116.12 37.63 116.1 37.73 116.21 37.73 116.2 37.83 116.32 37.83 116.3 37.93 116.41 37.93 116.4 38.03 116.52 38.03 116.5 38.13 116.62 38.13 116.6 38.23 116.71 38.23 116.7 38.33 116.82 38.33 116.8 38.43 116.91 38.43 116.9 38.53 117.02 38.53 117 38.63 117.12 38.63 117.1 38.73 117.21 38.73 117.2 38.83 117.32 38.83 117.3 38.93 117.41 38.93 117.4 39.03 117.52 39.03 117.5 39.13 117.62 39.13 117.6 39.23 117.71 39.23 117.7 39.33 117.82 39.33 117.8 39.43 117.91 39.43 117.9 39.53 118.02 39.53 118 39.63 118.12 39.63 118.1 39.73 118.21 39.73 118.2 39.83 118.32 39.83 118.3 39.93 118.41 39.93 118.4 40.03 118.52 40.03 118.5 40.13 118.62 40.13 118.6 40.23 118.71 40.23 118.7 40.33 118.82 40.33 118.8 40.43 118.91 40.43 118.9 40.53 119.02 40.53 119 40.63 119.12 40.63 119.1 40.73 119.21 40.73 119.2 40.83 119.32 40.83 119.3 40.93 119.41 40.93 119.4 41.03 119.52 41.03 119.5 41.13 119.62 41.13 119.6 41.23 119.71 41.23 119.7 41.33 119.82 41.33 119.8 41.43 119.91 41.43 119.9 41.53 120.02 41.53 120 41.63 120.12 41.63 120.1 41.73 120.21 41.73 120.2 41.83 120.32 41.83 120.3 41.93 120.41 41.93 120.4 42.03 120.52 42.03 120.5 42.13 120.62 42.13 120.6 42.23 120.71 42.23 120.7 42.33 120.82 42.33 120.8 42.43 120.91 42.43 120.9 42.53 121.02 42.53 121 42.63 121.12 42.63 121.1 42.73 121.21 42.73 121.2 42.83 121.32 42.83 121.3 42.93 121.41 42.93 121.4 43.03 127.5 43.03 128.7 34.55 129.17 36.73 129.24 36.73 129.27 36.83 129.35 36.83 129.37 36.93 129.45 36.93 129.47 37.03 129.55 37.03 129.57 37.13 129.65 37.13 129.67 37.23 129.74 37.23 129.77 37.33 129.85 37.33 129.87 37.43 129.95 37.43 129.97 37.53 130.05 37.53 130.07 37.63 130.15 37.63 130.17 37.73 130.24 37.73 130.27 37.83 130.35 37.83 130.37 37.93 130.45 37.93 130.47 38.03 130.55 38.03 130.57 38.13 130.65 38.13 130.67 38.23 130.74 38.23 130.77 38.33 130.85 38.33 130.87 38.43 130.95 38.43 130.97 38.53 131.05 38.53 131.07 38.63 131.15 38.63 131.17 38.73 131.24 38.73 131.27 38.83 131.35 38.83 131.37 38.93 131.45 38.93 131.47 39.03 131.55 39.03 131.57 39.13 131.65 39.13 131.67 39.23 131.74 39.23 131.77 39.33 131.85 39.33 131.87 39.43 131.95 39.43 131.97 39.53 132.05 39.53 132.07 39.63 132.15 39.63 132.17 39.73 132.24 39.73 132.27 39.83 132.35 39.83 132.37 39.93 132.45 39.93 132.47 40.03 132.55 40.03 132.57 40.13 132.65 40.13 132.67 40.23 132.74 40.23 132.77 40.33 132.85 40.33 132.87 40.43 132.95 40.43 132.97 40.53 133.05 40.53 133.07 40.63 133.15 40.63 133.17 40.73 133.24 40.73 133.27 40.83 133.35 40.83 133.37 40.93 133.45 40.93 133.47 41.03 133.55 41.03 133.57 41.13 133.65 41.13 133.67 41.23 133.74 41.23 133.77 41.33 133.85 41.33 133.87 41.43 133.95 41.43 133.97 41.53 134.05 41.53 134.07 41.63 134.15 41.63 134.17 41.73 134.24 41.73 134.27 41.83 134.35 41.83 134.37 41.93 134.45 41.93 134.47 42.03 134.55 42.03 134.57 42.13 134.65 42.13 134.67 42.23 134.74 42.23 134.77 42.33 134.85 42.33 134.87 42.43 134.95 42.43 134.97 42.53 135.05 42.53 135.07 42.63 135.15 42.63 135.17 42.73 135.24 42.73 135.27 42.83 135.35 42.83 135.37 42.93 135.45 42.93 135.47 43.03 141.99 43.03 146.23 12.94 148.56 24.01 146.73 36.73 146.85 36.73 146.83 36.83 146.95 36.83 146.93 36.93 147.05 36.93 147.03 37.03 147.15 37.03 147.13 37.13 147.25 37.13 147.23 37.23 147.35 37.23 147.33 37.33 147.45 37.33 147.43 37.43 147.55 37.43 147.53 37.53 147.65 37.53 147.63 37.63 147.75 37.63 147.73 37.73 147.85 37.73 147.83 37.83 147.95 37.83 147.93 37.93 148.05 37.93 148.03 38.03 148.15 38.03 148.13 38.13 148.25 38.13 148.23 38.23 148.35 38.23 148.33 38.33 148.45 38.33 148.43 38.43 148.55 38.43 148.53 38.53 148.65 38.53 148.63 38.63 148.75 38.63 148.73 38.73 148.85 38.73 148.83 38.83 148.95 38.83 148.93 38.93 149.05 38.93 149.03 39.03 149.15 39.03 149.13 39.13 149.25 39.13 149.23 39.23 149.35 39.23 149.33 39.33 149.45 39.33 149.43 39.43 149.55 39.43 149.53 39.53 149.65 39.53 149.63 39.63 149.75 39.63 149.73 39.73 149.85 39.73 149.83 39.83 149.95 39.83 149.93 39.93 150.05 39.93 150.03 40.03 150.15 40.03 150.13 40.13 150.25 40.13 150.23 40.23 150.35 40.23 150.33 40.33 150.45 40.33 150.43 40.43 150.55 40.43 150.53 40.53 150.65 40.53 150.63 40.63 150.75 40.63 150.73 40.73 150.85 40.73 150.83 40.83 150.95 40.83 150.93 40.93 151.05 40.93 151.03 41.03 151.15 41.03 151.13 41.13 151.25 41.13 151.23 41.23 151.35 41.23 151.33 41.33 151.45 41.33 151.43 41.43 151.55 41.43 151.53 41.53 151.65 41.53 151.63 41.63 151.75 41.63 151.73 41.73 151.85 41.73 151.83 41.83 151.95 41.83 151.93 41.93 152.05 41.93 152.03 42.03 152.15 42.03 152.13 42.13 152.25 42.13 152.23 42.23 152.35 42.23 152.33 42.33 152.45 42.33 152.43 42.43 152.55 42.43 152.53 42.53 152.65 42.53 152.63 42.63 152.75 42.63 152.73 42.73 152.85 42.73 152.83 42.83 152.95 42.83 152.93 42.93 153.05 42.93 153.03 43.03 159.08 43.03 160.91 30.31 166.25 19.47 163.82 36.73 163.93 36.73 163.92 36.83 164.04 36.83 164.02 36.93 164.13 36.93 164.12 37.03 164.24 37.03 164.22 37.13 164.33 37.13 164.32 37.23 164.43 37.23 164.42 37.33 164.54 37.33 164.52 37.43 164.63 37.43 164.62 37.53 164.74 37.53 164.72 37.63 164.83 37.63 164.82 37.73 164.93 37.73 164.92 37.83 165.04 37.83 165.02 37.93 165.13 37.93 165.12 38.03 165.24 38.03 165.22 38.13 165.33 38.13 165.32 38.23 165.43 38.23 165.42 38.33 165.54 38.33 165.52 38.43 165.63 38.43 165.62 38.53 165.74 38.53 165.72 38.63 165.83 38.63 165.82 38.73 165.93 38.73 165.92 38.83 166.04 38.83 166.02 38.93 166.13 38.93 166.12 39.03 166.24 39.03 166.22 39.13 166.33 39.13 166.32 39.23 166.43 39.23 166.42 39.33 166.54 39.33 166.52 39.43 166.63 39.43 166.62 39.53 166.74 39.53 166.72 39.63 166.83 39.63 166.82 39.73 166.93 39.73 166.92 39.83 167.04 39.83 167.02 39.93 167.13 39.93 167.12 40.03 167.24 40.03 167.22 40.13 167.33 40.13 167.32 40.23 167.43 40.23 167.42 40.33 167.54 40.33 167.52 40.43 167.63 40.43 167.62 40.53 167.74 40.53 167.72 40.63 167.83 40.63 167.82 40.73 167.93 40.73 167.92 40.83 168.04 40.83 168.02 40.93 168.13 40.93 168.12 41.03 168.24 41.03 168.22 41.13 168.33 41.13 168.32 41.23 168.43 41.23 168.42 41.33 168.54 41.33 168.52 41.43 168.63 41.43 168.62 41.53 168.74 41.53 168.72 41.63 168.83 41.63 168.82 41.73 168.93 41.73 168.92 41.83 169.04 41.83 169.02 41.93 169.13 41.93 169.12 42.03 169.24 42.03 169.22 42.13 169.33 42.13 169.32 42.23 169.43 42.23 169.42 42.33 169.54 42.33 169.52 42.43 169.63 42.43 169.62 42.53 169.74 42.53 169.72 42.63 169.83 42.63 169.82 42.73 169.93 42.73 169.92 42.83 170.04 42.83 170.02 42.93 170.13 42.93 170.12 43.03 176.22 43.03 178.23 28.82 186.97 28.82 185.85 36.73 185.97 36.73 185.95 36.83 186.07 36.83 186.05 36.93 186.17 36.93 186.15 37.03 186.27 37.03 186.25 37.13 186.37 37.13 186.35 37.23 186.47 37.23 186.45 37.33 186.57 37.33 186.55 37.43 186.67 37.43 186.65 37.53 186.77 37.53 186.75 37.63 186.87 37.63 186.85 37.73 186.97 37.73 186.95 37.83 187.07 37.83 187.05 37.93 187.17 37.93 187.15 38.03 187.27 38.03 187.25 38.13 187.37 38.13 187.35 38.23 187.47 38.23 187.45 38.33 187.57 38.33 187.55 38.43 187.67 38.43 187.65 38.53 187.77 38.53 187.75 38.63 187.87 38.63 187.85 38.73 187.97 38.73 187.95 38.83 188.07 38.83 188.05 38.93 188.17 38.93 188.15 39.03 188.27 39.03 188.25 39.13 188.37 39.13 188.35 39.23 188.47 39.23 188.45 39.33 188.57 39.33 188.55 39.43 188.67 39.43 188.65 39.53 188.77 39.53 188.75 39.63 188.87 39.63 188.85 39.73 188.97 39.73 188.95 39.83 189.07 39.83 189.05 39.93 189.17 39.93 189.15 40.03 189.27 40.03 189.25 40.13 189.37 40.13 189.35 40.23 189.47 40.23 189.45 40.33 189.57 40.33 189.55 40.43 189.67 40.43 189.65 40.53 189.77 40.53 189.75 40.63 189.87 40.63 189.85 40.73 189.97 40.73 189.95 40.83 190.07 40.83 190.05 40.93 190.17 40.93 190.15 41.03 190.27 41.03 190.25 41.13 190.37 41.13 190.35 41.23 190.47 41.23 190.45 41.33 190.57 41.33 190.55 41.43 190.67 41.43 190.65 41.53 190.77 41.53 190.75 41.63 190.87 41.63 190.85 41.73 190.97 41.73 190.95 41.83 191.07 41.83 191.05 41.93 191.17 41.93 191.15 42.03 191.27 42.03 191.25 42.13 191.37 42.13 191.35 42.23 191.47 42.23 191.45 42.33 191.57 42.33 191.55 42.43 191.67 42.43 191.65 42.53 191.77 42.53 191.75 42.63 191.87 42.63 191.85 42.73 191.97 42.73 191.95 42.83 192.07 42.83 192.05 42.93 192.17 42.93 192.15 43.03 198.25 43.03 199.45 34.55 199.92 36.73 200 36.73 200.02 36.83 200.1 36.83 200.12 36.93 200.2 36.93 200.22 37.03 200.3 37.03 200.32 37.13 200.4 37.13 200.42 37.23 200.5 37.23 200.52 37.33 200.6 37.33 200.62 37.43 200.7 37.43 200.72 37.53 200.8 37.53 200.82 37.63 200.9 37.63 200.92 37.73 201 37.73 201.02 37.83 201.1 37.83 201.12 37.93 201.2 37.93 201.22 38.03 201.3 38.03 201.32 38.13 201.4 38.13 201.42 38.23 201.5 38.23 201.52 38.33 201.6 38.33 201.62 38.43 201.7 38.43 201.72 38.53 201.8 38.53 201.82 38.63 201.9 38.63 201.92 38.73 202 38.73 202.02 38.83 202.1 38.83 202.12 38.93 202.2 38.93 202.22 39.03 202.3 39.03 202.32 39.13 202.4 39.13 202.42 39.23 202.5 39.23 202.52 39.33 202.6 39.33 202.62 39.43 202.7 39.43 202.72 39.53 202.8 39.53 202.82 39.63 202.9 39.63 202.92 39.73 203 39.73 203.02 39.83 203.1 39.83 203.12 39.93 203.2 39.93 203.22 40.03 203.3 40.03 203.32 40.13 203.4 40.13 203.42 40.23 203.5 40.23 203.52 40.33 203.6 40.33 203.62 40.43 203.7 40.43 203.72 40.53 203.8 40.53 203.82 40.63 203.9 40.63 203.92 40.73 204 40.73 204.02 40.83 204.1 40.83 204.12 40.93 204.2 40.93 204.22 41.03 204.3 41.03 204.32 41.13 204.4 41.13 204.42 41.23 204.5 41.23 204.52 41.33 204.6 41.33 204.62 41.43 204.7 41.43 204.72 41.53 204.8 41.53 204.82 41.63 204.9 41.63 204.92 41.73 205 41.73 205.02 41.83 205.1 41.83 205.12 41.93 205.2 41.93 205.22 42.03 205.3 42.03 205.32 42.13 205.4 42.13 205.42 42.23 205.5 42.23 205.52 42.33 205.6 42.33 205.62 42.43 205.7 42.43 205.72 42.53 205.8 42.53 205.82 42.63 205.9 42.63 205.92 42.73 206 42.73 206.02 42.83 206.1 42.83 206.12 42.93 206.2 42.93 206.22 43.03 212.75 43.03 217.88 6.55 217.77 6.55"/>
    <g>
      <path class="cls-2" d="M200.12,36.48l-5.05-23.55-3.33,23.55h-5.59L191.21.5h6.11l5,23.55,3.39-23.55h5.59l-5.07,35.98h-6.11ZM164.11,36.48L169.17.5h15.12l2.4,2.8-2.18,16.12-3.22,2.85h-9.58l-2.02,14.21h-5.59ZM172.46,16.87h5.85l.95-.84,1.38-9.23-.78-.84h-5.9l-1.51,10.92ZM147.02,36.48l1.78-12.44-4.93-23.55h6.01l2.64,15.91,7.23-15.91h6.16l-11.54,23.4-1.82,12.58h-5.54ZM129.37,36.48l-5.05-23.55-3.33,23.55h-5.59L120.45.5h6.11l5,23.55,3.39-23.55h5.59l-5.07,35.98h-6.11ZM98.11,36.48l-1.66-35.98h5.5l.75,28.38L111.59.5h5.66l-11.79,35.98h-7.36ZM83.61,36.48l-4.03-13.72-3.88,5.72-1.18,8h-5.5L74.09.5h5.49l-2.52,17.48L88.55.5h6.21l-10.94,16.03,5.84,19.96h-6.05ZM47.23,36.48l.72-5.57,15.57-25.01h-11.97l.75-5.4h17.79l-.73,5.57-15.57,25.01h11.97l-.75,5.4h-17.79ZM37.11,36.48l-5.05-23.55-3.33,23.55h-5.59L28.2.5h6.11l5,23.55L42.7.5h5.59l-5.07,35.98h-6.11ZM13.29,36.48l-.96-14.21h-4.15l-2.02,14.21H.58L5.64.5h15.37l2.4,2.8-2.18,16.12-3.43,3,.9,14.07h-5.41ZM8.93,16.87h6.19l.9-.85,1.37-9.22-.72-.85h-6.24l-1.51,10.92Z"/>
      <path class="cls-1" d="M211.01.75l-5,35.48h-5.69l-4.72-21.98-.59-2.75-.39,2.78-3.11,21.94h-5.09L191.42.75h5.69l4.67,21.97.58,2.75.4-2.78,3.16-21.94h5.09M184.18.75l2.25,2.63-2.15,15.92-3.08,2.73h-9.7l-.06.43-1.95,13.78h-5.09L169.39.75h14.79M172.18,17.12h6.24l.14-.13.82-.72.14-.12.03-.18,1.34-9.02.04-.24-.16-.18-.62-.67-.15-.16h-6.22l-.06.43-1.44,10.42-.08.57M165.52.75l-11.36,23.04-.04.07v.08s-1.77,12.29-1.77,12.29h-5.04l1.74-12.15v-.09s0-.09,0-.09l-4.87-23.16h5.49l2.47,14.89.27,1.62.68-1.49,6.83-15.02h5.59M140.26.75l-5,35.48h-5.69l-4.72-21.98-.59-2.75-.39,2.78-3.11,21.94h-5.09L120.67.75h5.69l4.67,21.97.58,2.75.4-2.78,3.16-21.94h5.09M116.91.75l-11.62,35.48h-6.94l-1.63-35.48h4.99l.71,26.64.08,3,.9-2.86L111.77.75h5.14M94.29.75l-10.6,15.54-.13.2.07.23,5.72,19.52h-5.53l-3.83-13.03-.3-1.02-.59.88-3.55,5.23-.06.09-.02.11-1.14,7.73h-4.99L74.31.75h4.99l-2.32,16.09-.32,2.22,1.23-1.88L88.69.75h5.6M69.8.75l-.68,5.23-15.3,24.58-.48.76h12.14l-.68,4.9h-17.28l.68-5.23,15.3-24.58.48-.76h-12.14l.68-4.9h17.29M48,.75l-5,35.48h-5.69l-4.72-21.98-.59-2.75-.39,2.78-3.11,21.94h-5.09L28.42.75h5.69l4.67,21.97.58,2.75.4-2.78L42.91.75h5.09M20.89.75l2.25,2.63-2.15,15.91-3.27,2.85-.19.16.02.25.88,13.68h-4.9l-.93-13.74-.03-.47h-4.6l-.06.43-1.95,13.78H.86L5.86.75h15.03M8.64,17.12h6.58l.14-.14.77-.72.13-.12.03-.17,1.34-9.02.03-.23-.15-.17-.58-.67-.15-.17h-6.57l-.06.43-1.44,10.42-.08.57M211.58.25h-6.1l-3.22,22.37L197.52.25h-6.53l-5.14,36.48h6.1l3.17-22.37,4.8,22.37h6.53L211.58.25h0ZM184.41.25h-15.46l-5.14,36.48h6.1l2.02-14.21h9.46l3.36-2.98,2.21-16.32-2.54-2.98h0ZM172.75,16.62l1.44-10.42h5.57l.62.67-1.34,9.02-.82.72h-5.47ZM166.32.25h-6.72l-6.96,15.31-2.54-15.31h-6.53l4.99,23.76-1.82,12.72h6.05l1.82-12.72L166.32.25h0ZM140.83.25h-6.1l-3.22,22.37L126.77.25h-6.53l-5.14,36.48h6.1l3.17-22.37,4.8,22.37h6.53L140.83.25h0ZM117.6.25h-6.19l-8.5,27.12-.72-27.12h-6l1.68,36.48h7.78L117.6.25h0ZM95.23.25h-6.82l-10.95,16.66L79.87.25h-6l-5.14,36.48h6l1.2-8.16,3.55-5.23,3.94,13.39h6.58l-5.9-20.16L95.23.25h0ZM70.37.25h-18.29l-.82,5.9h11.81l-15.36,24.67-.77,5.9h18.29l.82-5.9h-11.81l15.36-24.67.77-5.9h0ZM48.58.25h-6.1l-3.22,22.37L34.51.25h-6.53l-5.14,36.48h6.1l3.17-22.37,4.8,22.37h6.53L48.58.25h0ZM21.12.25H5.42L.29,36.73h6.1l2.02-14.21h3.7l.96,14.21h5.91l-.91-14.21,3.41-2.98,2.21-16.32-2.54-2.98h0ZM9.22,16.62l1.44-10.42h5.9l.58.67-1.34,9.02-.77.72h-5.81Z"/>
    </g>
  </g>
</svg>